<?xml version="1.0" standalone="no"?>
<!DOCTYPE svg PUBLIC "-//W3C//DTD SVG 20010904//EN"
 "http://www.w3.org/TR/2001/REC-SVG-20010904/DTD/svg10.dtd">
<svg version="1.0" xmlns="http://www.w3.org/2000/svg"
 width="512.000000pt" height="512.000000pt" viewBox="0 0 512.000000 512.000000"
 preserveAspectRatio="xMidYMid meet">

<g transform="translate(0.000000,512.000000) scale(0.100000,-0.100000)"
fill="#000000" stroke="none">
<path d="M1723 4950 c-607 -77 -1109 -433 -1382 -979 -240 -478 -239 -1069 3
-1550 l35 -68 -110 -364 c-87 -290 -109 -373 -106 -408 8 -73 65 -130 138
-138 35 -3 118 19 408 106 l364 110 71 -36 c85 -43 175 -78 275 -108 l74 -22
22 -74 c53 -179 143 -363 253 -519 86 -122 290 -327 412 -413 113 -80 339
-195 465 -236 442 -146 926 -112 1334 93 l68 35 364 -110 c290 -87 373 -109
408 -106 73 8 130 65 138 138 3 35 -19 118 -106 408 l-110 364 35 68 c205 408
239 892 93 1334 -41 126 -156 352 -236 465 -87 122 -292 327 -410 410 -161
113 -334 198 -506 250 l-89 27 -38 117 c-93 285 -262 547 -482 750 -241 222
-568 384 -888 441 -111 19 -393 28 -497 15z m367 -320 c391 -48 742 -252 981
-569 127 -169 213 -361 261 -579 31 -140 31 -424 0 -564 -48 -219 -134 -410
-262 -580 -217 -289 -522 -479 -890 -555 -130 -26 -403 -24 -536 5 -149 32
-244 66 -387 138 -80 40 -140 64 -161 64 -18 0 -145 -34 -281 -75 -137 -41
-250 -73 -252 -72 -1 2 31 115 72 252 41 136 75 263 75 282 0 21 -22 76 -60
150 -229 443 -225 941 11 1368 96 175 243 342 406 463 294 217 665 315 1023
272z m1700 -1398 c427 -192 728 -575 827 -1052 28 -133 25 -403 -5 -538 -34
-153 -66 -243 -138 -385 -40 -80 -64 -140 -64 -161 0 -18 34 -145 75 -281 41
-137 73 -250 72 -252 -2 -1 -115 31 -252 72 -136 41 -263 75 -281 75 -20 0
-80 -24 -156 -63 -132 -66 -236 -104 -388 -139 -136 -31 -421 -32 -562 0 -218
48 -412 135 -578 261 -126 95 -205 174 -299 300 -67 90 -173 285 -187 344 l-6
27 83 0 c579 1 1144 310 1462 800 183 283 287 625 287 948 0 59 4 82 13 82 6
0 50 -17 97 -38z"/>
<path d="M1563 3825 c-175 -47 -317 -195 -353 -368 -7 -35 -10 -181 -8 -425 3
-356 4 -372 24 -398 39 -53 71 -69 134 -69 63 0 95 16 134 69 18 23 22 45 24
137 l4 109 158 0 158 0 4 -109 c2 -92 6 -114 24 -137 39 -53 71 -69 134 -69
63 0 95 16 134 69 20 26 21 42 24 398 3 409 0 439 -54 546 -97 195 -334 303
-541 247z m205 -332 c58 -43 67 -66 70 -184 l4 -109 -161 0 -161 0 0 94 c0
129 22 179 95 212 40 19 119 12 153 -13z"/>
<path d="M2415 3826 c-41 -18 -83 -69 -90 -109 -3 -18 -5 -262 -3 -544 3 -499
4 -512 24 -539 39 -53 71 -69 134 -69 63 0 95 16 134 69 21 27 21 38 21 566 0
528 0 539 -21 566 -11 15 -32 37 -46 47 -33 25 -113 32 -153 13z"/>
<path d="M3455 1906 c-97 -43 -124 -171 -54 -251 45 -51 78 -57 301 -53 215 3
223 5 272 72 29 39 29 133 0 172 -50 67 -55 69 -282 71 -157 2 -214 0 -237
-11z"/>
<path d="M2975 1426 c-67 -29 -105 -106 -91 -181 9 -47 59 -102 104 -115 25
-8 184 -10 474 -8 423 3 437 4 464 24 53 39 69 71 69 134 0 63 -16 95 -69 134
-27 20 -40 21 -474 23 -356 2 -453 0 -477 -11z"/>
</g>
</svg>
