<?xml version="1.0" standalone="no"?>
<!DOCTYPE svg PUBLIC "-//W3C//DTD SVG 20010904//EN"
 "http://www.w3.org/TR/2001/REC-SVG-20010904/DTD/svg10.dtd">
<svg version="1.0" xmlns="http://www.w3.org/2000/svg"
 width="512.000000pt" height="512.000000pt" viewBox="0 0 512.000000 512.000000"
 preserveAspectRatio="xMidYMid meet">

<g transform="translate(0.000000,512.000000) scale(0.100000,-0.100000)"
fill="#000000" stroke="none">
<path d="M3088 5010 c-738 -78 -1360 -584 -1586 -1291 -66 -205 -76 -280 -77
-544 0 -274 14 -369 85 -588 265 -804 1057 -1334 1895 -1267 228 19 456 78
653 170 l85 40 375 -130 c206 -72 376 -129 378 -127 2 1 -48 151 -111 332 -63
181 -115 333 -115 338 0 5 34 53 75 108 380 505 476 1128 265 1719 -207 581
-658 1012 -1236 1179 -182 53 -494 81 -686 61z m183 -1620 c159 -421 289 -770
289 -776 0 -10 -270 -119 -275 -112 -1 2 -24 62 -51 133 l-49 130 -342 3 -341
2 -21 -53 c-75 -201 -83 -218 -99 -212 -10 4 -71 27 -137 52 -66 25 -121 47
-123 48 -2 1 125 339 282 751 157 412 290 762 295 777 l11 28 136 -3 136 -3
289 -765z m1009 420 l0 -150 -150 0 -150 0 0 150 0 150 150 0 150 0 0 -150z
m0 -905 l0 -405 -150 0 -150 0 0 398 c0 219 3 402 7 405 3 4 71 7 150 7 l143
0 0 -405z"/>
<path d="M2812 3583 c-85 -219 -192 -504 -192 -508 0 -3 102 -5 226 -5 211 0
226 1 219 18 -4 9 -54 140 -111 291 -57 150 -105 276 -108 278 -2 2 -18 -31
-34 -74z"/>
<path d="M1061 3675 c-144 -70 -213 -111 -327 -197 -589 -438 -860 -1223 -674
-1948 62 -240 191 -497 345 -687 25 -30 45 -58 45 -61 0 -4 -52 -155 -115
-336 -63 -182 -112 -332 -110 -334 3 -3 172 54 377 125 l373 130 94 -45 c502
-234 1097 -225 1608 27 292 144 560 378 715 626 l26 41 -157 0 c-331 1 -621
67 -916 208 -247 119 -420 243 -615 443 -187 191 -292 340 -401 568 -89 187
-143 357 -184 580 -22 119 -31 460 -16 591 11 95 45 276 57 308 9 24 -1 21
-125 -39z"/>
</g>
</svg>
