<?xml version="1.0" standalone="no"?>
<!DOCTYPE svg PUBLIC "-//W3C//DTD SVG 20010904//EN"
 "http://www.w3.org/TR/2001/REC-SVG-20010904/DTD/svg10.dtd">
<svg version="1.0" xmlns="http://www.w3.org/2000/svg"
 width="512.000000pt" height="512.000000pt" viewBox="0 0 512.000000 512.000000"
 preserveAspectRatio="xMidYMid meet">

<g transform="translate(0.000000,512.000000) scale(0.100000,-0.100000)"
fill="#000000" stroke="none">
<path d="M2365 4954 c-146 -14 -245 -28 -348 -50 -789 -161 -1447 -659 -1784
-1350 -314 -645 -310 -1369 9 -2009 l60 -119 -22 -86 c-43 -163 -112 -346
-191 -511 -69 -143 -81 -175 -86 -235 -22 -267 204 -469 474 -425 238 38 597
140 797 226 75 33 93 37 115 28 14 -6 82 -34 151 -63 544 -225 1178 -261 1750
-99 332 93 641 249 910 457 118 92 297 268 393 387 271 336 437 709 504 1130
25 155 24 498 -1 650 -31 189 -84 389 -136 510 l-18 43 38 31 c81 65 140 188
140 291 0 119 -73 252 -172 313 -25 15 -150 68 -278 116 l-232 89 -89 232
c-48 128 -101 253 -116 278 -119 193 -407 227 -568 68 -28 -28 -58 -61 -66
-74 l-14 -22 -77 29 c-160 62 -375 116 -582 147 -97 14 -477 26 -561 18z
m1587 -326 c9 -7 55 -114 101 -238 98 -263 113 -293 164 -341 50 -48 78 -62
342 -160 178 -66 226 -88 234 -106 23 -51 5 -63 -234 -152 -264 -99 -302 -117
-350 -168 -48 -50 -62 -78 -160 -342 -66 -178 -88 -226 -106 -234 -51 -23 -63
-5 -152 234 -145 389 -121 366 -535 520 -212 79 -231 92 -209 142 8 18 56 40
234 106 264 98 292 112 342 160 51 48 66 78 164 341 46 124 92 231 101 238 8
6 23 12 32 12 9 0 24 -6 32 -12z m-2461 -1777 c69 -33 112 -74 150 -143 31
-58 34 -70 34 -148 0 -78 -3 -90 -34 -148 -38 -70 -70 -100 -145 -140 -43 -22
-64 -26 -136 -26 -78 -1 -90 2 -148 33 -69 37 -109 80 -144 151 -32 66 -31
196 2 265 42 86 123 152 215 176 49 13 158 2 206 -20z m1200 0 c69 -33 112
-74 150 -143 31 -58 34 -70 34 -148 0 -78 -3 -90 -34 -148 -38 -70 -70 -100
-145 -140 -43 -22 -64 -26 -136 -26 -78 -1 -90 2 -148 33 -69 37 -109 80 -144
151 -32 66 -31 196 2 265 42 86 123 152 215 176 49 13 158 2 206 -20z"/>
</g>
</svg>
