<?xml version="1.0" standalone="no"?>
<!DOCTYPE svg PUBLIC "-//W3C//DTD SVG 20010904//EN"
 "http://www.w3.org/TR/2001/REC-SVG-20010904/DTD/svg10.dtd">
<svg version="1.0" xmlns="http://www.w3.org/2000/svg"
 width="512.000000pt" height="512.000000pt" viewBox="0 0 512.000000 512.000000"
 preserveAspectRatio="xMidYMid meet">

<g transform="translate(0.000000,512.000000) scale(0.100000,-0.100000)"
fill="#000000" stroke="none">
<path d="M1483 4945 c-85 -23 -153 -63 -219 -129 -50 -50 -114 -146 -114 -171
0 -3 635 -5 1410 -5 776 0 1410 2 1410 5 0 22 -59 114 -104 163 -61 66 -142
113 -231 137 -85 22 -2071 22 -2152 0z"/>
<path d="M1001 4304 c-83 -22 -165 -71 -224 -133 -99 -104 -137 -210 -137
-383 l0 -108 1920 0 1920 0 0 108 c0 173 -38 279 -137 383 -61 64 -141 111
-228 134 -87 22 -3030 22 -3114 -1z"/>
<path d="M521 3344 c-169 -45 -301 -180 -346 -351 -23 -87 -22 -2380 0 -2468
45 -172 179 -305 352 -350 86 -23 3980 -23 4066 0 173 45 307 178 352 350 13
52 15 211 15 1235 0 1024 -2 1183 -15 1235 -45 172 -179 305 -352 350 -85 22
-3989 21 -4072 -1z m1852 -688 c59 -21 1002 -615 1047 -660 22 -21 52 -64 68
-95 23 -48 27 -69 27 -141 0 -73 -4 -93 -28 -141 -15 -31 -49 -76 -75 -101
-56 -52 -965 -623 -1035 -650 -29 -11 -74 -18 -117 -18 -136 0 -242 66 -302
188 l-33 67 0 655 0 655 33 67 c39 79 101 139 176 167 61 24 182 27 239 7z"/>
<path d="M2240 1760 c0 -555 1 -590 18 -590 27 0 937 573 937 590 0 17 -910
590 -937 590 -17 0 -18 -35 -18 -590z"/>
</g>
</svg>
