<?xml version="1.0" standalone="no"?>
<!DOCTYPE svg PUBLIC "-//W3C//DTD SVG 20010904//EN"
 "http://www.w3.org/TR/2001/REC-SVG-20010904/DTD/svg10.dtd">
<svg version="1.0" xmlns="http://www.w3.org/2000/svg"
 width="512.000000pt" height="512.000000pt" viewBox="0 0 512.000000 512.000000"
 preserveAspectRatio="xMidYMid meet">

<g transform="translate(0.000000,512.000000) scale(0.100000,-0.100000)"
fill="#000000" stroke="none">
<path d="M2485 3940 c-1738 -705 -2125 -865 -2147 -890 -58 -63 -57 -158 2
-215 17 -17 347 -211 733 -431 l702 -402 540 538 c468 466 546 540 583 551
116 34 227 -77 193 -193 -11 -37 -85 -115 -551 -583 l-538 -540 401 -702 c221
-386 415 -715 431 -731 56 -59 154 -61 217 -4 24 22 182 405 890 2152 789
1947 861 2128 856 2168 -9 77 -66 133 -144 139 -44 3 -207 -61 -2168 -857z"/>
</g>
</svg>
