<?xml version="1.0" standalone="no"?>
<!DOCTYPE svg PUBLIC "-//W3C//DTD SVG 20010904//EN"
 "http://www.w3.org/TR/2001/REC-SVG-20010904/DTD/svg10.dtd">
<svg version="1.0" xmlns="http://www.w3.org/2000/svg"
 width="512.000000pt" height="512.000000pt" viewBox="0 0 512.000000 512.000000"
 preserveAspectRatio="xMidYMid meet">

<g transform="translate(0.000000,512.000000) scale(0.100000,-0.100000)"
fill="#000000" stroke="none">
<path d="M416 4045 c-196 -54 -360 -227 -401 -422 -22 -101 -22 -2025 0 -2126
42 -198 206 -369 405 -422 85 -23 2528 -22 2614 0 184 48 336 193 397 376 l24
74 0 1035 c0 974 -1 1039 -18 1095 -59 193 -212 342 -402 390 -51 13 -223 15
-1315 14 -1022 -1 -1264 -3 -1304 -14z"/>
<path d="M4674 3747 c-18 -7 -235 -129 -483 -272 l-451 -260 2 -653 3 -654
440 -252 c242 -139 458 -259 480 -268 68 -27 126 -31 193 -14 105 27 191 98
236 195 21 46 21 50 24 965 3 1011 4 991 -58 1081 -67 97 -162 146 -283 144
-40 0 -86 -6 -103 -12z"/>
</g>
</svg>
